<svg xmlns="http://www.w3.org/2000/svg" width="598.484" height="676"><defs><style>svg{background-color:#fff}.root text,.root tspan{font:12px Arial}.root circle,.root path{stroke-width:2px;stroke:#000}.root path{fill-opacity:0}.anchor rect,.any-character rect,.root circle{fill:#6b6659}.anchor text,.any-character text{fill:#fff}.charset-escape text,.escape text,.literal text{fill:#000}.charset-escape rect,.escape rect{fill:#bada55}.literal rect{fill:#dae9e5}.charset .charset-box{fill:#cbcbba}.charset .charset-label tspan,.match-fragment .repeat-label tspan,.subexp .subexp-label tspan{font-size:10px}.repeat-label{cursor:help}.charset .charset-label tspan,.subexp .subexp-label tspan{dominant-baseline:text-after-edge}.subexp .subexp-box{stroke:#908c83;stroke-dasharray:6,2;stroke-width:2px;fill-opacity:0}.quote{fill:#908c83}</style></defs><g class="root" transform="translate(15 10)"><g class="regexp"><path d="M20 59q0-10 10-10m518.484 10q0-10-10-10M20 187.5q0-10 10-10m518.484 10q0-10-10-10M20 441q0 10 10 10m518.484-10q0 10-10 10M10 328q10 0 10-10V59m538.484 269q-10 0-10-10V59M10 328q10 0 10 10v103m538.484-113q-10 0-10 10v103"/><g class="regexp-matches"><path d="M30 49h3.898m500.688 0h3.898M30 177.5h2.977m502.53 0h2.977m0 273.5"/><g class="match"><path d="M104.914 49h45m267.64 0h50"/><g class="match-fragment"><g class="label anchor"><path d="M33.898 37h71.016v24H33.898z"/><text transform="translate(38.898 54)"><tspan>Start of line</tspan></text></g></g><g class="match-fragment"><path d="M124.914 49q-10 0-10 10v27q0 10 10 10h317.64q10 0 10-10V59q0-10-10-10m10 15l5-5m-5 5l-5-5"/><g class="subexp" transform="translate(124.914)"><rect rx="3" ry="3" class="subexp-box" transform="translate(0 11)" width="317.641" height="75"/><text class="subexp-label" transform="translate(0 11)"><tspan>group #1</tspan></text><g class="regexp match"><path d="M99.688 49h25M200 49h20"/><g class="match-fragment"><path d="M10 49q10 0 10-10v-2q0-10 10-10h64.688q10 0 10 10v2q0 10 10 10"/><g class="escape"><g class="label" transform="translate(25 37)"><rect width="74.688" height="24" rx="3" ry="3"/><text transform="translate(5 17)"><tspan>white space</tspan></text></g></g></g><g class="match-fragment charset" transform="translate(124.688 21)"><rect rx="3" ry="3" class="charset-box" transform="translate(0 11)" width="75.313" height="34"/><text class="charset-label" transform="translate(0 11)"><tspan>One of:</tspan></text><g class="charset-range"><text transform="translate(36 32)">-</text><g class="literal"><g class="label" transform="translate(5 16)"><rect width="26" height="24" rx="3" ry="3"/><text transform="translate(5 17)"><tspan class="quote">“</tspan><tspan>A</tspan><tspan class="quote">”</tspan></text></g></g><g class="literal"><g class="label" transform="translate(45 16)"><rect width="25.313" height="24" rx="3" ry="3"/><text transform="translate(5 17)"><tspan class="quote">“</tspan><tspan>Z</tspan><tspan class="quote">”</tspan></text></g></g></g></g><g class="match-fragment"><path d="M220 49q-10 0-10 10v7q0 10 10 10h72.64q10 0 10-10v-7q0-10-10-10m10 15l5-5m-5 5l-5-5"/><g class="charset" transform="translate(220 21)"><rect rx="3" ry="3" class="charset-box" transform="translate(0 11)" width="72.641" height="34"/><text class="charset-label" transform="translate(0 11)"><tspan>One of:</tspan></text><g class="charset-range"><text transform="translate(34.656 32)">-</text><g class="literal"><g class="label" transform="translate(5 16)"><rect width="24.656" height="24" rx="3" ry="3"/><text transform="translate(5 17)"><tspan class="quote">“</tspan><tspan>a</tspan><tspan class="quote">”</tspan></text></g></g><g class="literal"><g class="label" transform="translate(43.656 16)"><rect width="23.984" height="24" rx="3" ry="3"/><text transform="translate(5 17)"><tspan class="quote">“</tspan><tspan>z</tspan><tspan class="quote">”</tspan></text></g></g></g></g></g></g></g><text class="repeat-label" transform="translate(389.758 107)"><tspan>at most 2 times</tspan><title><text>repeats at most 3 times in total</text></title></text></g><g class="match-fragment"><g class="label anchor"><path d="M467.555 37h67.03v24h-67.03z"/><text transform="translate(472.555 54)"><tspan>End of line</tspan></text></g></g></g><g class="match"><path d="M103.992 177.5h45m269.485 0h50"/><g class="match-fragment"><g class="label anchor"><path d="M32.977 165.5h71.016v24H32.977z"/><text transform="translate(37.977 182.5)"><tspan>Start of line</tspan></text></g></g><g class="match-fragment"><path d="M123.992 177.5q-10 0-10 10V229q0 10 10 10h319.485q10 0 10-10v-41.5q0-10-10-10m10 15l5-5m-5 5l-5-5"/><g class="subexp" transform="translate(123.992 114)"><rect rx="3" ry="3" class="subexp-box" transform="translate(0 11)" width="319.484" height="104"/><text class="subexp-label" transform="translate(0 11)"><tspan>group #2</tspan></text><g class="regexp match"><path d="M99.688 63.5h25m76.656 0h20"/><g class="match-fragment"><path d="M10 63.5q10 0 10-10v-2q0-10 10-10h64.688q10 0 10 10v2q0 10 10 10"/><g class="escape"><g class="label" transform="translate(25 51.5)"><rect width="74.688" height="24" rx="3" ry="3"/><text transform="translate(5 17)"><tspan>white space</tspan></text></g></g></g><g class="match-fragment charset" transform="translate(124.688 21)"><rect rx="3" ry="3" class="charset-box" transform="translate(0 11)" width="76.656" height="63"/><text class="charset-label" transform="translate(0 11)"><tspan>One of:</tspan></text><g class="charset-range"><text transform="translate(36 32)">-</text><g class="literal"><g class="label" transform="translate(5 16)"><rect width="26" height="24" rx="3" ry="3"/><text transform="translate(5 17)"><tspan class="quote">“</tspan><tspan>А</tspan><tspan class="quote">”</tspan></text></g></g><g class="literal"><g class="label" transform="translate(45 16)"><rect width="26.656" height="24" rx="3" ry="3"/><text transform="translate(5 17)"><tspan class="quote">“</tspan><tspan>Я</tspan><tspan class="quote">”</tspan></text></g></g></g><g class="literal"><g class="label" transform="translate(25.328 45)"><rect width="26" height="24" rx="3" ry="3"/><text transform="translate(5 17)"><tspan class="quote">“</tspan><tspan>Ё</tspan><tspan class="quote">”</tspan></text></g></g></g><g class="match-fragment"><path d="M221.344 63.5q-10 0-10 10V95q0 10 10 10h73.14q10 0 10-10V73.5q0-10-10-10m10 15l5-5m-5 5l-5-5"/><g class="charset" transform="translate(221.344 21)"><rect rx="3" ry="3" class="charset-box" transform="translate(0 11)" width="73.141" height="63"/><text class="charset-label" transform="translate(0 11)"><tspan>One of:</tspan></text><g class="charset-range"><text transform="translate(34.656 32)">-</text><g class="literal"><g class="label" transform="translate(5 16)"><rect width="24.656" height="24" rx="3" ry="3"/><text transform="translate(5 17)"><tspan class="quote">“</tspan><tspan>а</tspan><tspan class="quote">”</tspan></text></g></g><g class="literal"><g class="label" transform="translate(43.656 16)"><rect width="24.484" height="24" rx="3" ry="3"/><text transform="translate(5 17)"><tspan class="quote">“</tspan><tspan>я</tspan><tspan class="quote">”</tspan></text></g></g></g><g class="literal"><g class="label" transform="translate(24.242 45)"><rect width="24.656" height="24" rx="3" ry="3"/><text transform="translate(5 17)"><tspan class="quote">“</tspan><tspan>ё</tspan><tspan class="quote">”</tspan></text></g></g></g></g></g></g><text class="repeat-label" transform="translate(390.68 250)"><tspan>at most 2 times</tspan><title><text>repeats at most 3 times in total</text></title></text></g><g class="match-fragment"><g class="label anchor"><path d="M468.477 165.5h67.03v24h-67.03z"/><text transform="translate(473.477 182.5)"><tspan>End of line</tspan></text></g></g></g><g class="match"><path d="M101.016 451h45m275.437 0h50"/><g class="match-fragment"><g class="label anchor"><path d="M30 439h71.016v24H30z"/><text transform="translate(35 456)"><tspan>Start of line</tspan></text></g></g><g class="match-fragment"><path d="M121.016 451q-10 0-10 10v172q0 10 10 10h325.437q10 0 10-10V461q0-10-10-10m10 15l5-5m-5 5l-5-5"/><g class="subexp" transform="translate(121.016 257)"><rect rx="3" ry="3" class="subexp-box" transform="translate(0 11)" width="325.438" height="365"/><text class="subexp-label" transform="translate(0 11)"><tspan>group #3</tspan></text><g class="regexp match"><path d="M99.688 194h25m79.234 0h20"/><g class="match-fragment"><path d="M10 194q10 0 10-10v-2q0-10 10-10h64.688q10 0 10 10v2q0 10 10 10"/><g class="escape"><g class="label" transform="translate(25 182)"><rect width="74.688" height="24" rx="3" ry="3"/><text transform="translate(5 17)"><tspan>white space</tspan></text></g></g></g><g class="match-fragment charset" transform="translate(124.688 35.5)"><rect rx="3" ry="3" class="charset-box" transform="translate(0 11)" width="79.234" height="295"/><text class="charset-label" transform="translate(0 11)"><tspan>One of:</tspan></text><g class="charset-range"><text transform="translate(36 32)">-</text><g class="literal"><g class="label" transform="translate(5 16)"><rect width="26" height="24" rx="3" ry="3"/><text transform="translate(5 17)"><tspan class="quote">“</tspan><tspan>А</tspan><tspan class="quote">”</tspan></text></g></g><g class="literal"><g class="label" transform="translate(45 16)"><rect width="29.234" height="24" rx="3" ry="3"/><text transform="translate(5 17)"><tspan class="quote">“</tspan><tspan>Щ</tspan><tspan class="quote">”</tspan></text></g></g></g><g class="literal"><g class="label" transform="translate(24.563 45)"><rect width="30.109" height="24" rx="3" ry="3"/><text transform="translate(5 17)"><tspan class="quote">“</tspan><tspan>Ю</tspan><tspan class="quote">”</tspan></text></g></g><g class="literal"><g class="label" transform="translate(26.29 74)"><rect width="26.656" height="24" rx="3" ry="3"/><text transform="translate(5 17)"><tspan class="quote">“</tspan><tspan>Я</tspan><tspan class="quote">”</tspan></text></g></g><g class="literal"><g class="label" transform="translate(26.313 103)"><rect width="26.609" height="24" rx="3" ry="3"/><text transform="translate(5 17)"><tspan class="quote">“</tspan><tspan>Є</tspan><tspan class="quote">”</tspan></text></g></g><g class="literal"><g class="label" transform="translate(28.953 132)"><rect width="21.328" height="24" rx="3" ry="3"/><text transform="translate(5 17)"><tspan class="quote">“</tspan><tspan>І</tspan><tspan class="quote">”</tspan></text></g></g><g class="literal"><g class="label" transform="translate(28.953 161)"><rect width="21.328" height="24" rx="3" ry="3"/><text transform="translate(5 17)"><tspan class="quote">“</tspan><tspan>Ї</tspan><tspan class="quote">”</tspan></text></g></g><g class="literal"><g class="label" transform="translate(27.688 190)"><rect width="23.859" height="24" rx="3" ry="3"/><text transform="translate(5 17)"><tspan class="quote">“</tspan><tspan>Ґ</tspan><tspan class="quote">”</tspan></text></g></g><g class="literal"><g class="label" transform="translate(29.29 219)"><rect width="20.656" height="24" rx="3" ry="3"/><text transform="translate(5 17)"><tspan class="quote">“</tspan><tspan>’</tspan><tspan class="quote">”</tspan></text></g></g><g class="literal"><g class="label" transform="translate(29.477 248)"><rect width="20.281" height="24" rx="3" ry="3"/><text transform="translate(5 17)"><tspan class="quote">“</tspan><tspan>&apos;</tspan><tspan class="quote">”</tspan></text></g></g><g class="literal"><g class="label" transform="translate(28.625 277)"><rect width="21.984" height="24" rx="3" ry="3"/><text transform="translate(5 17)"><tspan class="quote">“</tspan><tspan>`</tspan><tspan class="quote">”</tspan></text></g></g></g><g class="match-fragment"><path d="M223.922 194q-10 0-10 10v152q0 10 10 10h76.516q10 0 10-10V204q0-10-10-10m10 15l5-5m-5 5l-5-5"/><g class="charset" transform="translate(223.922 21)"><rect rx="3" ry="3" class="charset-box" transform="translate(0 11)" width="76.516" height="324"/><text class="charset-label" transform="translate(0 11)"><tspan>One of:</tspan></text><g class="charset-range"><text transform="translate(34.656 32)">-</text><g class="literal"><g class="label" transform="translate(5 16)"><rect width="24.656" height="24" rx="3" ry="3"/><text transform="translate(5 17)"><tspan class="quote">“</tspan><tspan>а</tspan><tspan class="quote">”</tspan></text></g></g><g class="literal"><g class="label" transform="translate(43.656 16)"><rect width="27.859" height="24" rx="3" ry="3"/><text transform="translate(5 17)"><tspan class="quote">“</tspan><tspan>щ</tspan><tspan class="quote">”</tspan></text></g></g></g><g class="literal"><g class="label" transform="translate(26.14 45)"><rect width="24.234" height="24" rx="3" ry="3"/><text transform="translate(5 17)"><tspan class="quote">“</tspan><tspan>ь</tspan><tspan class="quote">”</tspan></text></g></g><g class="literal"><g class="label" transform="translate(24.766 74)"><rect width="26.984" height="24" rx="3" ry="3"/><text transform="translate(5 17)"><tspan class="quote">“</tspan><tspan>ю</tspan><tspan class="quote">”</tspan></text></g></g><g class="literal"><g class="label" transform="translate(26.016 103)"><rect width="24.484" height="24" rx="3" ry="3"/><text transform="translate(5 17)"><tspan class="quote">“</tspan><tspan>я</tspan><tspan class="quote">”</tspan></text></g></g><g class="literal"><g class="label" transform="translate(26.203 132)"><rect width="24.109" height="24" rx="3" ry="3"/><text transform="translate(5 17)"><tspan class="quote">“</tspan><tspan>є</tspan><tspan class="quote">”</tspan></text></g></g><g class="literal"><g class="label" transform="translate(27.93 161)"><rect width="20.656" height="24" rx="3" ry="3"/><text transform="translate(5 17)"><tspan class="quote">“</tspan><tspan>і</tspan><tspan class="quote">”</tspan></text></g></g><g class="literal"><g class="label" transform="translate(27.594 190)"><rect width="21.328" height="24" rx="3" ry="3"/><text transform="translate(5 17)"><tspan class="quote">“</tspan><tspan>ї</tspan><tspan class="quote">”</tspan></text></g></g><g class="literal"><g class="label" transform="translate(26.797 219)"><rect width="22.922" height="24" rx="3" ry="3"/><text transform="translate(5 17)"><tspan class="quote">“</tspan><tspan>ґ</tspan><tspan class="quote">”</tspan></text></g></g><g class="literal"><g class="label" transform="translate(27.93 248)"><rect width="20.656" height="24" rx="3" ry="3"/><text transform="translate(5 17)"><tspan class="quote">“</tspan><tspan>’</tspan><tspan class="quote">”</tspan></text></g></g><g class="literal"><g class="label" transform="translate(28.117 277)"><rect width="20.281" height="24" rx="3" ry="3"/><text transform="translate(5 17)"><tspan class="quote">“</tspan><tspan>&apos;</tspan><tspan class="quote">”</tspan></text></g></g><g class="literal"><g class="label" transform="translate(27.266 306)"><rect width="21.984" height="24" rx="3" ry="3"/><text transform="translate(5 17)"><tspan class="quote">“</tspan><tspan>`</tspan><tspan class="quote">”</tspan></text></g></g></g></g></g></g><text class="repeat-label" transform="translate(393.656 654)"><tspan>at most 2 times</tspan><title><text>repeats at most 3 times in total</text></title></text></g><g class="match-fragment"><g class="label anchor"><path d="M471.453 439h67.031v24h-67.03z"/><text transform="translate(476.453 456)"><tspan>End of line</tspan></text></g></g></g></g></g><path d="M10 328H0m558.484 0h10"/><circle cy="328" r="5"/><circle cx="568.484" cy="328" r="5"/></g></svg>