<svg xmlns="http://www.w3.org/2000/svg" width="1088.922" height="998"><defs><style>svg{background-color:#fff}.root text,.root tspan{font:12px Arial}.root circle,.root path{stroke-width:2px;stroke:#000}.root path{fill-opacity:0}.anchor rect,.any-character rect,.root circle{fill:#6b6659}.anchor text,.any-character text{fill:#fff}.charset-escape text,.escape text,.literal text{fill:#000}.charset-escape rect,.escape rect{fill:#bada55}.literal rect{fill:#dae9e5}.charset .charset-box{fill:#cbcbba}.charset .charset-label tspan,.match-fragment .repeat-label tspan,.subexp .subexp-label tspan{font-size:10px}.repeat-label{cursor:help}.charset .charset-label tspan,.subexp .subexp-label tspan{dominant-baseline:text-after-edge}.subexp .subexp-box{stroke:#908c83;stroke-dasharray:6,2;stroke-width:2px;fill-opacity:0}.quote{fill:#908c83}</style></defs><g transform="translate(15 10)" class="root"><g class="regexp"><path d="M20 206q0-10 10-10m1008.922 10q0-10-10-10M20 525.5q0 10 10 10m1008.922-10q0 10-10 10M20 829.5q0 10 10 10m1008.922-10q0 10-10 10M10 489q10 0 10-10V206m1028.922 283q-10 0-10-10V206M10 489q10 0 10 10v330.5M1048.922 489q-10 0-10 10v330.5"/><g class="regexp-matches"><path d="M30 196h1.344m996.234 0h1.344m0 643.5"/><g class="match"><path d="M102.36 196h10m75.312 0h20m118.797 0h45m72.64 0h50m416.438 0h50"/><g class="match-fragment"><g class="label anchor"><path d="M31.344 184h71.016v24H31.344z"/><text transform="translate(36.344 201)"><tspan>Start of line</tspan></text></g></g><g transform="translate(112.36 168)" class="match-fragment charset"><rect rx="3" ry="3" class="charset-box" transform="translate(0 11)" width="75.313" height="34"/><text transform="translate(0 11)" class="charset-label"><tspan>One of:</tspan></text><g class="charset-range"><text transform="translate(36 32)">-</text><g class="literal"><g class="label" transform="translate(5 16)"><rect width="26" height="24" rx="3" ry="3"/><text transform="translate(5 17)"><tspan class="quote">“</tspan><tspan>A</tspan><tspan class="quote">”</tspan></text></g></g><g class="literal"><g class="label" transform="translate(45 16)"><rect width="25.313" height="24" rx="3" ry="3"/><text transform="translate(5 17)"><tspan class="quote">“</tspan><tspan>Z</tspan><tspan class="quote">”</tspan></text></g></g></g></g><g transform="translate(197.672 31)" class="match-fragment subexp"><rect rx="3" ry="3" class="subexp-box" transform="translate(0 11)" width="153.797" height="297"/><text transform="translate(0 11)" class="subexp-label"><tspan>group #1</tspan></text><g class="regexp match"><path d="M83.14 165h25"/><g transform="translate(10 21)" class="match-fragment charset"><rect rx="3" ry="3" class="charset-box" transform="translate(0 11)" width="73.141" height="266"/><text transform="translate(0 11)" class="charset-label"><tspan>None of:</tspan></text><g class="charset-range"><text transform="translate(34.656 32)">-</text><g class="literal"><g class="label" transform="translate(5 16)"><rect width="24.656" height="24" rx="3" ry="3"/><text transform="translate(5 17)"><tspan class="quote">“</tspan><tspan>а</tspan><tspan class="quote">”</tspan></text></g></g><g class="literal"><g class="label" transform="translate(43.656 16)"><rect width="24.484" height="24" rx="3" ry="3"/><text transform="translate(5 17)"><tspan class="quote">“</tspan><tspan>я</tspan><tspan class="quote">”</tspan></text></g></g></g><g class="literal"><g class="label" transform="translate(24.242 45)"><rect width="24.656" height="24" rx="3" ry="3"/><text transform="translate(5 17)"><tspan class="quote">“</tspan><tspan>ё</tspan><tspan class="quote">”</tspan></text></g></g><g class="literal"><g class="label" transform="translate(24.516 74)"><rect width="24.109" height="24" rx="3" ry="3"/><text transform="translate(5 17)"><tspan class="quote">“</tspan><tspan>є</tspan><tspan class="quote">”</tspan></text></g></g><g class="literal"><g class="label" transform="translate(26.242 103)"><rect width="20.656" height="24" rx="3" ry="3"/><text transform="translate(5 17)"><tspan class="quote">“</tspan><tspan>і</tspan><tspan class="quote">”</tspan></text></g></g><g class="literal"><g class="label" transform="translate(25.906 132)"><rect width="21.328" height="24" rx="3" ry="3"/><text transform="translate(5 17)"><tspan class="quote">“</tspan><tspan>ї</tspan><tspan class="quote">”</tspan></text></g></g><g class="literal"><g class="label" transform="translate(25.11 161)"><rect width="22.922" height="24" rx="3" ry="3"/><text transform="translate(5 17)"><tspan class="quote">“</tspan><tspan>ґ</tspan><tspan class="quote">”</tspan></text></g></g><g class="literal"><g class="label" transform="translate(26.242 190)"><rect width="20.656" height="24" rx="3" ry="3"/><text transform="translate(5 17)"><tspan class="quote">“</tspan><tspan>’</tspan><tspan class="quote">”</tspan></text></g></g><g class="literal"><g class="label" transform="translate(26.43 219)"><rect width="20.281" height="24" rx="3" ry="3"/><text transform="translate(5 17)"><tspan class="quote">“</tspan><tspan>&apos;</tspan><tspan class="quote">”</tspan></text></g></g><g class="literal"><g class="label" transform="translate(25.578 248)"><rect width="21.984" height="24" rx="3" ry="3"/><text transform="translate(5 17)"><tspan class="quote">“</tspan><tspan>`</tspan><tspan class="quote">”</tspan></text></g></g></g><g class="match-fragment"><path d="M93.14 165q10 0 10-10v-2q0-10 10-10h10.657q10 0 10 10v2q0 10 10 10"/><g class="literal"><g class="label" transform="translate(108.14 153)"><rect width="20.656" height="24" rx="3" ry="3"/><text transform="translate(5 17)"><tspan class="quote">“</tspan><tspan>i</tspan><tspan class="quote">”</tspan></text></g></g></g></g></g><g class="match-fragment"><path d="M371.469 196q-10 0-10 10v7q0 10 10 10h72.64q10 0 10-10v-7q0-10-10-10m10 15l5-5m-5 5l-5-5"/><g transform="translate(371.469 168)" class="charset"><rect rx="3" ry="3" class="charset-box" transform="translate(0 11)" width="72.641" height="34"/><text transform="translate(0 11)" class="charset-label"><tspan>One of:</tspan></text><g class="charset-range"><text transform="translate(34.656 32)">-</text><g class="literal"><g class="label" transform="translate(5 16)"><rect width="24.656" height="24" rx="3" ry="3"/><text transform="translate(5 17)"><tspan class="quote">“</tspan><tspan>a</tspan><tspan class="quote">”</tspan></text></g></g><g class="literal"><g class="label" transform="translate(43.656 16)"><rect width="23.984" height="24" rx="3" ry="3"/><text transform="translate(5 17)"><tspan class="quote">“</tspan><tspan>z</tspan><tspan class="quote">”</tspan></text></g></g></g></g></g><g class="match-fragment"><path d="M469.11 196q10 0 10-10V10q0-10 10-10h441.437q10 0 10 10v176q0 10 10 10"/><g transform="translate(484.11 10)" class="subexp"><rect rx="3" ry="3" class="subexp-box" transform="translate(0 11)" width="451.438" height="328"/><text transform="translate(0 11)" class="subexp-label"><tspan>group #2</tspan></text><g class="regexp match"><path d="M84.688 186h10M170 186h20m118.797 0h45"/><g class="match-fragment escape"><g class="label" transform="translate(10 174)"><rect width="74.688" height="24" rx="3" ry="3"/><text transform="translate(5 17)"><tspan>white space</tspan></text></g></g><g transform="translate(94.688 158)" class="match-fragment charset"><rect rx="3" ry="3" class="charset-box" transform="translate(0 11)" width="75.313" height="34"/><text transform="translate(0 11)" class="charset-label"><tspan>One of:</tspan></text><g class="charset-range"><text transform="translate(36 32)">-</text><g class="literal"><g class="label" transform="translate(5 16)"><rect width="26" height="24" rx="3" ry="3"/><text transform="translate(5 17)"><tspan class="quote">“</tspan><tspan>A</tspan><tspan class="quote">”</tspan></text></g></g><g class="literal"><g class="label" transform="translate(45 16)"><rect width="25.313" height="24" rx="3" ry="3"/><text transform="translate(5 17)"><tspan class="quote">“</tspan><tspan>Z</tspan><tspan class="quote">”</tspan></text></g></g></g></g><g transform="translate(180 21)" class="match-fragment subexp"><rect rx="3" ry="3" class="subexp-box" transform="translate(0 11)" width="153.797" height="297"/><text transform="translate(0 11)" class="subexp-label"><tspan>group #3</tspan></text><g class="regexp match"><path d="M83.14 165h25"/><g transform="translate(10 21)" class="match-fragment charset"><rect rx="3" ry="3" class="charset-box" transform="translate(0 11)" width="73.141" height="266"/><text transform="translate(0 11)" class="charset-label"><tspan>None of:</tspan></text><g class="charset-range"><text transform="translate(34.656 32)">-</text><g class="literal"><g class="label" transform="translate(5 16)"><rect width="24.656" height="24" rx="3" ry="3"/><text transform="translate(5 17)"><tspan class="quote">“</tspan><tspan>а</tspan><tspan class="quote">”</tspan></text></g></g><g class="literal"><g class="label" transform="translate(43.656 16)"><rect width="24.484" height="24" rx="3" ry="3"/><text transform="translate(5 17)"><tspan class="quote">“</tspan><tspan>я</tspan><tspan class="quote">”</tspan></text></g></g></g><g class="literal"><g class="label" transform="translate(24.242 45)"><rect width="24.656" height="24" rx="3" ry="3"/><text transform="translate(5 17)"><tspan class="quote">“</tspan><tspan>ё</tspan><tspan class="quote">”</tspan></text></g></g><g class="literal"><g class="label" transform="translate(24.516 74)"><rect width="24.109" height="24" rx="3" ry="3"/><text transform="translate(5 17)"><tspan class="quote">“</tspan><tspan>є</tspan><tspan class="quote">”</tspan></text></g></g><g class="literal"><g class="label" transform="translate(26.242 103)"><rect width="20.656" height="24" rx="3" ry="3"/><text transform="translate(5 17)"><tspan class="quote">“</tspan><tspan>і</tspan><tspan class="quote">”</tspan></text></g></g><g class="literal"><g class="label" transform="translate(25.906 132)"><rect width="21.328" height="24" rx="3" ry="3"/><text transform="translate(5 17)"><tspan class="quote">“</tspan><tspan>ї</tspan><tspan class="quote">”</tspan></text></g></g><g class="literal"><g class="label" transform="translate(25.11 161)"><rect width="22.922" height="24" rx="3" ry="3"/><text transform="translate(5 17)"><tspan class="quote">“</tspan><tspan>ґ</tspan><tspan class="quote">”</tspan></text></g></g><g class="literal"><g class="label" transform="translate(26.242 190)"><rect width="20.656" height="24" rx="3" ry="3"/><text transform="translate(5 17)"><tspan class="quote">“</tspan><tspan>’</tspan><tspan class="quote">”</tspan></text></g></g><g class="literal"><g class="label" transform="translate(26.43 219)"><rect width="20.281" height="24" rx="3" ry="3"/><text transform="translate(5 17)"><tspan class="quote">“</tspan><tspan>&apos;</tspan><tspan class="quote">”</tspan></text></g></g><g class="literal"><g class="label" transform="translate(25.578 248)"><rect width="21.984" height="24" rx="3" ry="3"/><text transform="translate(5 17)"><tspan class="quote">“</tspan><tspan>`</tspan><tspan class="quote">”</tspan></text></g></g></g><g class="match-fragment"><path d="M93.14 165q10 0 10-10v-2q0-10 10-10h10.657q10 0 10 10v2q0 10 10 10"/><g class="literal"><g class="label" transform="translate(108.14 153)"><rect width="20.656" height="24" rx="3" ry="3"/><text transform="translate(5 17)"><tspan class="quote">“</tspan><tspan>i</tspan><tspan class="quote">”</tspan></text></g></g></g></g></g><g class="match-fragment"><path d="M353.797 186q-10 0-10 10v7q0 10 10 10h72.64q10 0 10-10v-7q0-10-10-10m10 15l5-5m-5 5l-5-5"/><g transform="translate(353.797 158)" class="charset"><rect rx="3" ry="3" class="charset-box" transform="translate(0 11)" width="72.641" height="34"/><text transform="translate(0 11)" class="charset-label"><tspan>One of:</tspan></text><g class="charset-range"><text transform="translate(34.656 32)">-</text><g class="literal"><g class="label" transform="translate(5 16)"><rect width="24.656" height="24" rx="3" ry="3"/><text transform="translate(5 17)"><tspan class="quote">“</tspan><tspan>a</tspan><tspan class="quote">”</tspan></text></g></g><g class="literal"><g class="label" transform="translate(43.656 16)"><rect width="23.984" height="24" rx="3" ry="3"/><text transform="translate(5 17)"><tspan class="quote">“</tspan><tspan>z</tspan><tspan class="quote">”</tspan></text></g></g></g></g></g></g></g></g><g class="match-fragment"><g class="label anchor"><path d="M960.547 184h67.031v24h-67.03z"/><text transform="translate(965.547 201)"><tspan>End of line</tspan></text></g></g></g><g class="match"><path d="M101.016 535.5h10m76.656 0h20m118.297 0h45m73.14 0h50m417.782 0h50"/><g class="match-fragment"><g class="label anchor"><path d="M30 523.5h71.016v24H30z"/><text transform="translate(35 540.5)"><tspan>Start of line</tspan></text></g></g><g transform="translate(111.016 493)" class="match-fragment charset"><rect rx="3" ry="3" class="charset-box" transform="translate(0 11)" width="76.656" height="63"/><text transform="translate(0 11)" class="charset-label"><tspan>One of:</tspan></text><g class="charset-range"><text transform="translate(36 32)">-</text><g class="literal"><g class="label" transform="translate(5 16)"><rect width="26" height="24" rx="3" ry="3"/><text transform="translate(5 17)"><tspan class="quote">“</tspan><tspan>А</tspan><tspan class="quote">”</tspan></text></g></g><g class="literal"><g class="label" transform="translate(45 16)"><rect width="26.656" height="24" rx="3" ry="3"/><text transform="translate(5 17)"><tspan class="quote">“</tspan><tspan>Я</tspan><tspan class="quote">”</tspan></text></g></g></g><g class="literal"><g class="label" transform="translate(25.328 45)"><rect width="26" height="24" rx="3" ry="3"/><text transform="translate(5 17)"><tspan class="quote">“</tspan><tspan>Ё</tspan><tspan class="quote">”</tspan></text></g></g></g><g transform="translate(197.672 385)" class="match-fragment subexp"><rect rx="3" ry="3" class="subexp-box" transform="translate(0 11)" width="153.297" height="268"/><text transform="translate(0 11)" class="subexp-label"><tspan>group #4</tspan></text><g class="regexp match"><path d="M82.64 150.5h25"/><g transform="translate(10 21)" class="match-fragment charset"><rect rx="3" ry="3" class="charset-box" transform="translate(0 11)" width="72.641" height="237"/><text transform="translate(0 11)" class="charset-label"><tspan>None of:</tspan></text><g class="charset-range"><text transform="translate(34.656 32)">-</text><g class="literal"><g class="label" transform="translate(5 16)"><rect width="24.656" height="24" rx="3" ry="3"/><text transform="translate(5 17)"><tspan class="quote">“</tspan><tspan>a</tspan><tspan class="quote">”</tspan></text></g></g><g class="literal"><g class="label" transform="translate(43.656 16)"><rect width="23.984" height="24" rx="3" ry="3"/><text transform="translate(5 17)"><tspan class="quote">“</tspan><tspan>z</tspan><tspan class="quote">”</tspan></text></g></g></g><g class="literal"><g class="label" transform="translate(24.266 45)"><rect width="24.109" height="24" rx="3" ry="3"/><text transform="translate(5 17)"><tspan class="quote">“</tspan><tspan>є</tspan><tspan class="quote">”</tspan></text></g></g><g class="literal"><g class="label" transform="translate(25.992 74)"><rect width="20.656" height="24" rx="3" ry="3"/><text transform="translate(5 17)"><tspan class="quote">“</tspan><tspan>і</tspan><tspan class="quote">”</tspan></text></g></g><g class="literal"><g class="label" transform="translate(25.656 103)"><rect width="21.328" height="24" rx="3" ry="3"/><text transform="translate(5 17)"><tspan class="quote">“</tspan><tspan>ї</tspan><tspan class="quote">”</tspan></text></g></g><g class="literal"><g class="label" transform="translate(24.86 132)"><rect width="22.922" height="24" rx="3" ry="3"/><text transform="translate(5 17)"><tspan class="quote">“</tspan><tspan>ґ</tspan><tspan class="quote">”</tspan></text></g></g><g class="literal"><g class="label" transform="translate(25.992 161)"><rect width="20.656" height="24" rx="3" ry="3"/><text transform="translate(5 17)"><tspan class="quote">“</tspan><tspan>’</tspan><tspan class="quote">”</tspan></text></g></g><g class="literal"><g class="label" transform="translate(26.18 190)"><rect width="20.281" height="24" rx="3" ry="3"/><text transform="translate(5 17)"><tspan class="quote">“</tspan><tspan>&apos;</tspan><tspan class="quote">”</tspan></text></g></g><g class="literal"><g class="label" transform="translate(25.328 219)"><rect width="21.984" height="24" rx="3" ry="3"/><text transform="translate(5 17)"><tspan class="quote">“</tspan><tspan>`</tspan><tspan class="quote">”</tspan></text></g></g></g><g class="match-fragment"><path d="M92.64 150.5q10 0 10-10v-2q0-10 10-10h10.657q10 0 10 10v2q0 10 10 10"/><g class="literal"><g class="label" transform="translate(107.64 138.5)"><rect width="20.656" height="24" rx="3" ry="3"/><text transform="translate(5 17)"><tspan class="quote">“</tspan><tspan>i</tspan><tspan class="quote">”</tspan></text></g></g></g></g></g><g class="match-fragment"><path d="M370.969 535.5q-10 0-10 10V567q0 10 10 10h73.14q10 0 10-10v-21.5q0-10-10-10m10 15l5-5m-5 5l-5-5"/><g transform="translate(370.969 493)" class="charset"><rect rx="3" ry="3" class="charset-box" transform="translate(0 11)" width="73.141" height="63"/><text transform="translate(0 11)" class="charset-label"><tspan>One of:</tspan></text><g class="charset-range"><text transform="translate(34.656 32)">-</text><g class="literal"><g class="label" transform="translate(5 16)"><rect width="24.656" height="24" rx="3" ry="3"/><text transform="translate(5 17)"><tspan class="quote">“</tspan><tspan>а</tspan><tspan class="quote">”</tspan></text></g></g><g class="literal"><g class="label" transform="translate(43.656 16)"><rect width="24.484" height="24" rx="3" ry="3"/><text transform="translate(5 17)"><tspan class="quote">“</tspan><tspan>я</tspan><tspan class="quote">”</tspan></text></g></g></g><g class="literal"><g class="label" transform="translate(24.242 45)"><rect width="24.656" height="24" rx="3" ry="3"/><text transform="translate(5 17)"><tspan class="quote">“</tspan><tspan>ё</tspan><tspan class="quote">”</tspan></text></g></g></g></g><g class="match-fragment"><path d="M469.11 535.5q10 0 10-10V364q0-10 10-10h442.78q10 0 10 10v161.5q0 10 10 10"/><g transform="translate(484.11 364)" class="subexp"><rect rx="3" ry="3" class="subexp-box" transform="translate(0 11)" width="452.781" height="299"/><text transform="translate(0 11)" class="subexp-label"><tspan>group #5</tspan></text><g class="regexp match"><path d="M84.688 171.5h10m76.656 0h20m118.297 0h45"/><g class="match-fragment escape"><g class="label" transform="translate(10 159.5)"><rect width="74.688" height="24" rx="3" ry="3"/><text transform="translate(5 17)"><tspan>white space</tspan></text></g></g><g transform="translate(94.688 129)" class="match-fragment charset"><rect rx="3" ry="3" class="charset-box" transform="translate(0 11)" width="76.656" height="63"/><text transform="translate(0 11)" class="charset-label"><tspan>One of:</tspan></text><g class="charset-range"><text transform="translate(36 32)">-</text><g class="literal"><g class="label" transform="translate(5 16)"><rect width="26" height="24" rx="3" ry="3"/><text transform="translate(5 17)"><tspan class="quote">“</tspan><tspan>А</tspan><tspan class="quote">”</tspan></text></g></g><g class="literal"><g class="label" transform="translate(45 16)"><rect width="26.656" height="24" rx="3" ry="3"/><text transform="translate(5 17)"><tspan class="quote">“</tspan><tspan>Я</tspan><tspan class="quote">”</tspan></text></g></g></g><g class="literal"><g class="label" transform="translate(25.328 45)"><rect width="26" height="24" rx="3" ry="3"/><text transform="translate(5 17)"><tspan class="quote">“</tspan><tspan>Ё</tspan><tspan class="quote">”</tspan></text></g></g></g><g transform="translate(181.344 21)" class="match-fragment subexp"><rect rx="3" ry="3" class="subexp-box" transform="translate(0 11)" width="153.297" height="268"/><text transform="translate(0 11)" class="subexp-label"><tspan>group #6</tspan></text><g class="regexp match"><path d="M82.64 150.5h25"/><g transform="translate(10 21)" class="match-fragment charset"><rect rx="3" ry="3" class="charset-box" transform="translate(0 11)" width="72.641" height="237"/><text transform="translate(0 11)" class="charset-label"><tspan>None of:</tspan></text><g class="charset-range"><text transform="translate(34.656 32)">-</text><g class="literal"><g class="label" transform="translate(5 16)"><rect width="24.656" height="24" rx="3" ry="3"/><text transform="translate(5 17)"><tspan class="quote">“</tspan><tspan>a</tspan><tspan class="quote">”</tspan></text></g></g><g class="literal"><g class="label" transform="translate(43.656 16)"><rect width="23.984" height="24" rx="3" ry="3"/><text transform="translate(5 17)"><tspan class="quote">“</tspan><tspan>z</tspan><tspan class="quote">”</tspan></text></g></g></g><g class="literal"><g class="label" transform="translate(24.266 45)"><rect width="24.109" height="24" rx="3" ry="3"/><text transform="translate(5 17)"><tspan class="quote">“</tspan><tspan>є</tspan><tspan class="quote">”</tspan></text></g></g><g class="literal"><g class="label" transform="translate(25.992 74)"><rect width="20.656" height="24" rx="3" ry="3"/><text transform="translate(5 17)"><tspan class="quote">“</tspan><tspan>і</tspan><tspan class="quote">”</tspan></text></g></g><g class="literal"><g class="label" transform="translate(25.656 103)"><rect width="21.328" height="24" rx="3" ry="3"/><text transform="translate(5 17)"><tspan class="quote">“</tspan><tspan>ї</tspan><tspan class="quote">”</tspan></text></g></g><g class="literal"><g class="label" transform="translate(24.86 132)"><rect width="22.922" height="24" rx="3" ry="3"/><text transform="translate(5 17)"><tspan class="quote">“</tspan><tspan>ґ</tspan><tspan class="quote">”</tspan></text></g></g><g class="literal"><g class="label" transform="translate(25.992 161)"><rect width="20.656" height="24" rx="3" ry="3"/><text transform="translate(5 17)"><tspan class="quote">“</tspan><tspan>’</tspan><tspan class="quote">”</tspan></text></g></g><g class="literal"><g class="label" transform="translate(26.18 190)"><rect width="20.281" height="24" rx="3" ry="3"/><text transform="translate(5 17)"><tspan class="quote">“</tspan><tspan>&apos;</tspan><tspan class="quote">”</tspan></text></g></g><g class="literal"><g class="label" transform="translate(25.328 219)"><rect width="21.984" height="24" rx="3" ry="3"/><text transform="translate(5 17)"><tspan class="quote">“</tspan><tspan>`</tspan><tspan class="quote">”</tspan></text></g></g></g><g class="match-fragment"><path d="M92.64 150.5q10 0 10-10v-2q0-10 10-10h10.657q10 0 10 10v2q0 10 10 10"/><g class="literal"><g class="label" transform="translate(107.64 138.5)"><rect width="20.656" height="24" rx="3" ry="3"/><text transform="translate(5 17)"><tspan class="quote">“</tspan><tspan>i</tspan><tspan class="quote">”</tspan></text></g></g></g></g></g><g class="match-fragment"><path d="M354.64 171.5q-10 0-10 10V203q0 10 10 10h73.141q10 0 10-10v-21.5q0-10-10-10m10 15l5-5m-5 5l-5-5"/><g transform="translate(354.64 129)" class="charset"><rect rx="3" ry="3" class="charset-box" transform="translate(0 11)" width="73.141" height="63"/><text transform="translate(0 11)" class="charset-label"><tspan>One of:</tspan></text><g class="charset-range"><text transform="translate(34.656 32)">-</text><g class="literal"><g class="label" transform="translate(5 16)"><rect width="24.656" height="24" rx="3" ry="3"/><text transform="translate(5 17)"><tspan class="quote">“</tspan><tspan>а</tspan><tspan class="quote">”</tspan></text></g></g><g class="literal"><g class="label" transform="translate(43.656 16)"><rect width="24.484" height="24" rx="3" ry="3"/><text transform="translate(5 17)"><tspan class="quote">“</tspan><tspan>я</tspan><tspan class="quote">”</tspan></text></g></g></g><g class="literal"><g class="label" transform="translate(24.242 45)"><rect width="24.656" height="24" rx="3" ry="3"/><text transform="translate(5 17)"><tspan class="quote">“</tspan><tspan>ё</tspan><tspan class="quote">”</tspan></text></g></g></g></g></g></g></g><g class="match-fragment"><g class="label anchor"><path d="M961.89 523.5h67.032v24H961.89z"/><text transform="translate(966.89 540.5)"><tspan>End of line</tspan></text></g></g></g><g class="match"><path d="M101.016 839.5h10m76.656 0h20m118.297 0h45m73.14 0h50m417.782 0h50"/><g class="match-fragment"><g class="label anchor"><path d="M30 827.5h71.016v24H30z"/><text transform="translate(35 844.5)"><tspan>Start of line</tspan></text></g></g><g transform="translate(111.016 710)" class="match-fragment charset"><rect rx="3" ry="3" class="charset-box" transform="translate(0 11)" width="76.656" height="237"/><text transform="translate(0 11)" class="charset-label"><tspan>One of:</tspan></text><g class="charset-range"><text transform="translate(36 32)">-</text><g class="literal"><g class="label" transform="translate(5 16)"><rect width="26" height="24" rx="3" ry="3"/><text transform="translate(5 17)"><tspan class="quote">“</tspan><tspan>А</tspan><tspan class="quote">”</tspan></text></g></g><g class="literal"><g class="label" transform="translate(45 16)"><rect width="26.656" height="24" rx="3" ry="3"/><text transform="translate(5 17)"><tspan class="quote">“</tspan><tspan>Я</tspan><tspan class="quote">”</tspan></text></g></g></g><g class="literal"><g class="label" transform="translate(25.023 45)"><rect width="26.609" height="24" rx="3" ry="3"/><text transform="translate(5 17)"><tspan class="quote">“</tspan><tspan>Є</tspan><tspan class="quote">”</tspan></text></g></g><g class="literal"><g class="label" transform="translate(27.664 74)"><rect width="21.328" height="24" rx="3" ry="3"/><text transform="translate(5 17)"><tspan class="quote">“</tspan><tspan>І</tspan><tspan class="quote">”</tspan></text></g></g><g class="literal"><g class="label" transform="translate(27.664 103)"><rect width="21.328" height="24" rx="3" ry="3"/><text transform="translate(5 17)"><tspan class="quote">“</tspan><tspan>Ї</tspan><tspan class="quote">”</tspan></text></g></g><g class="literal"><g class="label" transform="translate(26.398 132)"><rect width="23.859" height="24" rx="3" ry="3"/><text transform="translate(5 17)"><tspan class="quote">“</tspan><tspan>Ґ</tspan><tspan class="quote">”</tspan></text></g></g><g class="literal"><g class="label" transform="translate(28 161)"><rect width="20.656" height="24" rx="3" ry="3"/><text transform="translate(5 17)"><tspan class="quote">“</tspan><tspan>’</tspan><tspan class="quote">”</tspan></text></g></g><g class="literal"><g class="label" transform="translate(28.188 190)"><rect width="20.281" height="24" rx="3" ry="3"/><text transform="translate(5 17)"><tspan class="quote">“</tspan><tspan>&apos;</tspan><tspan class="quote">”</tspan></text></g></g><g class="literal"><g class="label" transform="translate(27.336 219)"><rect width="21.984" height="24" rx="3" ry="3"/><text transform="translate(5 17)"><tspan class="quote">“</tspan><tspan>`</tspan><tspan class="quote">”</tspan></text></g></g></g><g transform="translate(197.672 747)" class="match-fragment subexp"><rect rx="3" ry="3" class="subexp-box" transform="translate(0 11)" width="153.297" height="152"/><text transform="translate(0 11)" class="subexp-label"><tspan>group #7</tspan></text><g class="regexp match"><path d="M82.64 92.5h25"/><g transform="translate(10 21)" class="match-fragment charset"><rect rx="3" ry="3" class="charset-box" transform="translate(0 11)" width="72.641" height="121"/><text transform="translate(0 11)" class="charset-label"><tspan>None of:</tspan></text><g class="charset-range"><text transform="translate(34.656 32)">-</text><g class="literal"><g class="label" transform="translate(5 16)"><rect width="24.656" height="24" rx="3" ry="3"/><text transform="translate(5 17)"><tspan class="quote">“</tspan><tspan>a</tspan><tspan class="quote">”</tspan></text></g></g><g class="literal"><g class="label" transform="translate(43.656 16)"><rect width="23.984" height="24" rx="3" ry="3"/><text transform="translate(5 17)"><tspan class="quote">“</tspan><tspan>z</tspan><tspan class="quote">”</tspan></text></g></g></g><g class="literal"><g class="label" transform="translate(23.016 45)"><rect width="26.609" height="24" rx="3" ry="3"/><text transform="translate(5 17)"><tspan class="quote">“</tspan><tspan>ы</tspan><tspan class="quote">”</tspan></text></g></g><g class="literal"><g class="label" transform="translate(24.266 74)"><rect width="24.109" height="24" rx="3" ry="3"/><text transform="translate(5 17)"><tspan class="quote">“</tspan><tspan>э</tspan><tspan class="quote">”</tspan></text></g></g><g class="literal"><g class="label" transform="translate(23.578 103)"><rect width="25.484" height="24" rx="3" ry="3"/><text transform="translate(5 17)"><tspan class="quote">“</tspan><tspan>ъ</tspan><tspan class="quote">”</tspan></text></g></g></g><g class="match-fragment"><path d="M92.64 92.5q10 0 10-10v-2q0-10 10-10h10.657q10 0 10 10v2q0 10 10 10"/><g class="literal"><g class="label" transform="translate(107.64 80.5)"><rect width="20.656" height="24" rx="3" ry="3"/><text transform="translate(5 17)"><tspan class="quote">“</tspan><tspan>i</tspan><tspan class="quote">”</tspan></text></g></g></g></g></g><g class="match-fragment"><path d="M370.969 839.5q-10 0-10 10V958q0 10 10 10h73.14q10 0 10-10V849.5q0-10-10-10m10 15l5-5m-5 5l-5-5"/><g transform="translate(370.969 710)" class="charset"><rect rx="3" ry="3" class="charset-box" transform="translate(0 11)" width="73.141" height="237"/><text transform="translate(0 11)" class="charset-label"><tspan>One of:</tspan></text><g class="charset-range"><text transform="translate(34.656 32)">-</text><g class="literal"><g class="label" transform="translate(5 16)"><rect width="24.656" height="24" rx="3" ry="3"/><text transform="translate(5 17)"><tspan class="quote">“</tspan><tspan>а</tspan><tspan class="quote">”</tspan></text></g></g><g class="literal"><g class="label" transform="translate(43.656 16)"><rect width="24.484" height="24" rx="3" ry="3"/><text transform="translate(5 17)"><tspan class="quote">“</tspan><tspan>я</tspan><tspan class="quote">”</tspan></text></g></g></g><g class="literal"><g class="label" transform="translate(24.516 45)"><rect width="24.109" height="24" rx="3" ry="3"/><text transform="translate(5 17)"><tspan class="quote">“</tspan><tspan>є</tspan><tspan class="quote">”</tspan></text></g></g><g class="literal"><g class="label" transform="translate(26.242 74)"><rect width="20.656" height="24" rx="3" ry="3"/><text transform="translate(5 17)"><tspan class="quote">“</tspan><tspan>і</tspan><tspan class="quote">”</tspan></text></g></g><g class="literal"><g class="label" transform="translate(25.906 103)"><rect width="21.328" height="24" rx="3" ry="3"/><text transform="translate(5 17)"><tspan class="quote">“</tspan><tspan>ї</tspan><tspan class="quote">”</tspan></text></g></g><g class="literal"><g class="label" transform="translate(25.11 132)"><rect width="22.922" height="24" rx="3" ry="3"/><text transform="translate(5 17)"><tspan class="quote">“</tspan><tspan>ґ</tspan><tspan class="quote">”</tspan></text></g></g><g class="literal"><g class="label" transform="translate(26.242 161)"><rect width="20.656" height="24" rx="3" ry="3"/><text transform="translate(5 17)"><tspan class="quote">“</tspan><tspan>’</tspan><tspan class="quote">”</tspan></text></g></g><g class="literal"><g class="label" transform="translate(26.43 190)"><rect width="20.281" height="24" rx="3" ry="3"/><text transform="translate(5 17)"><tspan class="quote">“</tspan><tspan>&apos;</tspan><tspan class="quote">”</tspan></text></g></g><g class="literal"><g class="label" transform="translate(25.578 219)"><rect width="21.984" height="24" rx="3" ry="3"/><text transform="translate(5 17)"><tspan class="quote">“</tspan><tspan>`</tspan><tspan class="quote">”</tspan></text></g></g></g></g><g class="match-fragment"><path d="M469.11 839.5q10 0 10-10V689q0-10 10-10h442.78q10 0 10 10v140.5q0 10 10 10"/><g transform="translate(484.11 689)" class="subexp"><rect rx="3" ry="3" class="subexp-box" transform="translate(0 11)" width="452.781" height="278"/><text transform="translate(0 11)" class="subexp-label"><tspan>group #8</tspan></text><g class="regexp match"><path d="M84.688 150.5h10m76.656 0h20m118.297 0h45"/><g class="match-fragment escape"><g class="label" transform="translate(10 138.5)"><rect width="74.688" height="24" rx="3" ry="3"/><text transform="translate(5 17)"><tspan>white space</tspan></text></g></g><g transform="translate(94.688 21)" class="match-fragment charset"><rect rx="3" ry="3" class="charset-box" transform="translate(0 11)" width="76.656" height="237"/><text transform="translate(0 11)" class="charset-label"><tspan>One of:</tspan></text><g class="charset-range"><text transform="translate(36 32)">-</text><g class="literal"><g class="label" transform="translate(5 16)"><rect width="26" height="24" rx="3" ry="3"/><text transform="translate(5 17)"><tspan class="quote">“</tspan><tspan>А</tspan><tspan class="quote">”</tspan></text></g></g><g class="literal"><g class="label" transform="translate(45 16)"><rect width="26.656" height="24" rx="3" ry="3"/><text transform="translate(5 17)"><tspan class="quote">“</tspan><tspan>Я</tspan><tspan class="quote">”</tspan></text></g></g></g><g class="literal"><g class="label" transform="translate(25.023 45)"><rect width="26.609" height="24" rx="3" ry="3"/><text transform="translate(5 17)"><tspan class="quote">“</tspan><tspan>Є</tspan><tspan class="quote">”</tspan></text></g></g><g class="literal"><g class="label" transform="translate(27.664 74)"><rect width="21.328" height="24" rx="3" ry="3"/><text transform="translate(5 17)"><tspan class="quote">“</tspan><tspan>І</tspan><tspan class="quote">”</tspan></text></g></g><g class="literal"><g class="label" transform="translate(27.664 103)"><rect width="21.328" height="24" rx="3" ry="3"/><text transform="translate(5 17)"><tspan class="quote">“</tspan><tspan>Ї</tspan><tspan class="quote">”</tspan></text></g></g><g class="literal"><g class="label" transform="translate(26.398 132)"><rect width="23.859" height="24" rx="3" ry="3"/><text transform="translate(5 17)"><tspan class="quote">“</tspan><tspan>Ґ</tspan><tspan class="quote">”</tspan></text></g></g><g class="literal"><g class="label" transform="translate(28 161)"><rect width="20.656" height="24" rx="3" ry="3"/><text transform="translate(5 17)"><tspan class="quote">“</tspan><tspan>’</tspan><tspan class="quote">”</tspan></text></g></g><g class="literal"><g class="label" transform="translate(28.188 190)"><rect width="20.281" height="24" rx="3" ry="3"/><text transform="translate(5 17)"><tspan class="quote">“</tspan><tspan>&apos;</tspan><tspan class="quote">”</tspan></text></g></g><g class="literal"><g class="label" transform="translate(27.336 219)"><rect width="21.984" height="24" rx="3" ry="3"/><text transform="translate(5 17)"><tspan class="quote">“</tspan><tspan>`</tspan><tspan class="quote">”</tspan></text></g></g></g><g transform="translate(181.344 58)" class="match-fragment subexp"><rect rx="3" ry="3" class="subexp-box" transform="translate(0 11)" width="153.297" height="152"/><text transform="translate(0 11)" class="subexp-label"><tspan>group #9</tspan></text><g class="regexp match"><path d="M82.64 92.5h25"/><g transform="translate(10 21)" class="match-fragment charset"><rect rx="3" ry="3" class="charset-box" transform="translate(0 11)" width="72.641" height="121"/><text transform="translate(0 11)" class="charset-label"><tspan>None of:</tspan></text><g class="charset-range"><text transform="translate(34.656 32)">-</text><g class="literal"><g class="label" transform="translate(5 16)"><rect width="24.656" height="24" rx="3" ry="3"/><text transform="translate(5 17)"><tspan class="quote">“</tspan><tspan>a</tspan><tspan class="quote">”</tspan></text></g></g><g class="literal"><g class="label" transform="translate(43.656 16)"><rect width="23.984" height="24" rx="3" ry="3"/><text transform="translate(5 17)"><tspan class="quote">“</tspan><tspan>z</tspan><tspan class="quote">”</tspan></text></g></g></g><g class="literal"><g class="label" transform="translate(23.016 45)"><rect width="26.609" height="24" rx="3" ry="3"/><text transform="translate(5 17)"><tspan class="quote">“</tspan><tspan>ы</tspan><tspan class="quote">”</tspan></text></g></g><g class="literal"><g class="label" transform="translate(24.266 74)"><rect width="24.109" height="24" rx="3" ry="3"/><text transform="translate(5 17)"><tspan class="quote">“</tspan><tspan>э</tspan><tspan class="quote">”</tspan></text></g></g><g class="literal"><g class="label" transform="translate(23.578 103)"><rect width="25.484" height="24" rx="3" ry="3"/><text transform="translate(5 17)"><tspan class="quote">“</tspan><tspan>ъ</tspan><tspan class="quote">”</tspan></text></g></g></g><g class="match-fragment"><path d="M92.64 92.5q10 0 10-10v-2q0-10 10-10h10.657q10 0 10 10v2q0 10 10 10"/><g class="literal"><g class="label" transform="translate(107.64 80.5)"><rect width="20.656" height="24" rx="3" ry="3"/><text transform="translate(5 17)"><tspan class="quote">“</tspan><tspan>i</tspan><tspan class="quote">”</tspan></text></g></g></g></g></g><g class="match-fragment"><path d="M354.64 150.5q-10 0-10 10V269q0 10 10 10h73.141q10 0 10-10V160.5q0-10-10-10m10 15l5-5m-5 5l-5-5"/><g transform="translate(354.64 21)" class="charset"><rect rx="3" ry="3" class="charset-box" transform="translate(0 11)" width="73.141" height="237"/><text transform="translate(0 11)" class="charset-label"><tspan>One of:</tspan></text><g class="charset-range"><text transform="translate(34.656 32)">-</text><g class="literal"><g class="label" transform="translate(5 16)"><rect width="24.656" height="24" rx="3" ry="3"/><text transform="translate(5 17)"><tspan class="quote">“</tspan><tspan>а</tspan><tspan class="quote">”</tspan></text></g></g><g class="literal"><g class="label" transform="translate(43.656 16)"><rect width="24.484" height="24" rx="3" ry="3"/><text transform="translate(5 17)"><tspan class="quote">“</tspan><tspan>я</tspan><tspan class="quote">”</tspan></text></g></g></g><g class="literal"><g class="label" transform="translate(24.516 45)"><rect width="24.109" height="24" rx="3" ry="3"/><text transform="translate(5 17)"><tspan class="quote">“</tspan><tspan>є</tspan><tspan class="quote">”</tspan></text></g></g><g class="literal"><g class="label" transform="translate(26.242 74)"><rect width="20.656" height="24" rx="3" ry="3"/><text transform="translate(5 17)"><tspan class="quote">“</tspan><tspan>і</tspan><tspan class="quote">”</tspan></text></g></g><g class="literal"><g class="label" transform="translate(25.906 103)"><rect width="21.328" height="24" rx="3" ry="3"/><text transform="translate(5 17)"><tspan class="quote">“</tspan><tspan>ї</tspan><tspan class="quote">”</tspan></text></g></g><g class="literal"><g class="label" transform="translate(25.11 132)"><rect width="22.922" height="24" rx="3" ry="3"/><text transform="translate(5 17)"><tspan class="quote">“</tspan><tspan>ґ</tspan><tspan class="quote">”</tspan></text></g></g><g class="literal"><g class="label" transform="translate(26.242 161)"><rect width="20.656" height="24" rx="3" ry="3"/><text transform="translate(5 17)"><tspan class="quote">“</tspan><tspan>’</tspan><tspan class="quote">”</tspan></text></g></g><g class="literal"><g class="label" transform="translate(26.43 190)"><rect width="20.281" height="24" rx="3" ry="3"/><text transform="translate(5 17)"><tspan class="quote">“</tspan><tspan>&apos;</tspan><tspan class="quote">”</tspan></text></g></g><g class="literal"><g class="label" transform="translate(25.578 219)"><rect width="21.984" height="24" rx="3" ry="3"/><text transform="translate(5 17)"><tspan class="quote">“</tspan><tspan>`</tspan><tspan class="quote">”</tspan></text></g></g></g></g></g></g></g><g class="match-fragment"><g class="label anchor"><path d="M961.89 827.5h67.032v24H961.89z"/><text transform="translate(966.89 844.5)"><tspan>End of line</tspan></text></g></g></g></g></g><path d="M10 489H0m1048.922 0h10"/><circle cy="489" r="5"/><circle cx="1058.922" cy="489" r="5"/></g></svg>