<svg xmlns="http://www.w3.org/2000/svg" width="1055.5" height="88"><defs><style>svg{background-color:#fff}.root text,.root tspan{font:12px Arial}.root circle,.root path{stroke-width:2px;stroke:#000}.root path{fill-opacity:0}.anchor rect,.any-character rect,.root circle{fill:#6b6659}.anchor text,.any-character text{fill:#fff}.charset-escape text,.escape text,.literal text{fill:#000}.charset-escape rect,.escape rect{fill:#bada55}.literal rect{fill:#dae9e5}.charset .charset-box{fill:#cbcbba}.charset .charset-label tspan,.match-fragment .repeat-label tspan,.subexp .subexp-label tspan{font-size:10px}.repeat-label{cursor:help}.charset .charset-label tspan,.subexp .subexp-label tspan{dominant-baseline:text-after-edge}.subexp .subexp-box{stroke:#908c83;stroke-dasharray:6,2;stroke-width:2px;fill-opacity:0}.quote{fill:#908c83}</style></defs><g transform="translate(15 10)" class="root"><g class="regexp match"><path d="M81.016 33h20m30.656 0h20m74.687 0h10m25 0h20m32.672 0h25m74.688 0h20m32.672 0h25m74.687 0h20m32.672 0h25m74.688 0h20m32.671 0h25m74.688 0h20m32.672 0h25"/><g class="match-fragment"><g class="label anchor"><path d="M10 21h71.016v24H10z"/><text transform="translate(15 38)"><tspan>Start of line</tspan></text></g></g><g transform="translate(91.016)" class="match-fragment subexp"><rect rx="3" ry="3" class="subexp-box" transform="translate(0 11)" width="50.656" height="44"/><text transform="translate(0 11)" class="subexp-label"><tspan>group #1</tspan></text><g class="regexp match match-fragment literal"><g class="label" transform="translate(10 21)"><rect width="30.656" height="24" rx="3" ry="3"/><text transform="translate(5 17)"><tspan class="quote">“</tspan><tspan>tel</tspan><tspan class="quote">”</tspan></text></g></g></g><g class="match-fragment escape"><g class="label" transform="translate(151.672 21)"><rect width="74.688" height="24" rx="3" ry="3"/><text transform="translate(5 17)"><tspan>white space</tspan></text></g></g><g class="match-fragment literal"><g class="label" transform="translate(236.36 21)"><rect width="25" height="24" rx="3" ry="3"/><text transform="translate(5 17)"><tspan class="quote">“</tspan><tspan>+</tspan><tspan class="quote">”</tspan></text></g></g><g class="match-fragment"><path d="M281.36 33q-10 0-10 10v2q0 10 10 10h32.671q10 0 10-10v-2q0-10-10-10m10 15l5-5m-5 5l-5-5"/><g class="escape"><g class="label" transform="translate(281.36 21)"><rect width="32.672" height="24" rx="3" ry="3"/><text transform="translate(5 17)"><tspan>digit</tspan></text></g></g><text transform="translate(296.813 66)" class="repeat-label"><tspan>2 times</tspan><title><text>repeats 3 times in total</text></title></text></g><g class="match-fragment escape"><g class="label" transform="translate(339.031 21)"><rect width="74.688" height="24" rx="3" ry="3"/><text transform="translate(5 17)"><tspan>white space</tspan></text></g></g><g class="match-fragment"><path d="M433.719 33q-10 0-10 10v2q0 10 10 10h32.672q10 0 10-10v-2q0-10-10-10m10 15l5-5m-5 5l-5-5"/><g class="escape"><g class="label" transform="translate(433.719 21)"><rect width="32.672" height="24" rx="3" ry="3"/><text transform="translate(5 17)"><tspan>digit</tspan></text></g></g><text transform="translate(459.281 66)" class="repeat-label"><tspan>once</tspan><title><text>repeats 2 times in total</text></title></text></g><g class="match-fragment escape"><g class="label" transform="translate(491.39 21)"><rect width="74.688" height="24" rx="3" ry="3"/><text transform="translate(5 17)"><tspan>white space</tspan></text></g></g><g class="match-fragment"><path d="M586.078 33q-10 0-10 10v2q0 10 10 10h32.672q10 0 10-10v-2q0-10-10-10m10 15l5-5m-5 5l-5-5"/><g class="escape"><g class="label" transform="translate(586.078 21)"><rect width="32.672" height="24" rx="3" ry="3"/><text transform="translate(5 17)"><tspan>digit</tspan></text></g></g><text transform="translate(611.64 66)" class="repeat-label"><tspan>once</tspan><title><text>repeats 2 times in total</text></title></text></g><g class="match-fragment escape"><g class="label" transform="translate(643.75 21)"><rect width="74.688" height="24" rx="3" ry="3"/><text transform="translate(5 17)"><tspan>white space</tspan></text></g></g><g class="match-fragment"><path d="M738.438 33q-10 0-10 10v2q0 10 10 10h32.671q10 0 10-10v-2q0-10-10-10m10 15l5-5m-5 5l-5-5"/><g class="escape"><g class="label" transform="translate(738.438 21)"><rect width="32.672" height="24" rx="3" ry="3"/><text transform="translate(5 17)"><tspan>digit</tspan></text></g></g><text transform="translate(764 66)" class="repeat-label"><tspan>once</tspan><title><text>repeats 2 times in total</text></title></text></g><g class="match-fragment escape"><g class="label" transform="translate(796.11 21)"><rect width="74.688" height="24" rx="3" ry="3"/><text transform="translate(5 17)"><tspan>white space</tspan></text></g></g><g class="match-fragment"><path d="M890.797 33q-10 0-10 10v2q0 10 10 10h32.672q10 0 10-10v-2q0-10-10-10m10 15l5-5m-5 5l-5-5"/><g class="escape"><g class="label" transform="translate(890.797 21)"><rect width="32.672" height="24" rx="3" ry="3"/><text transform="translate(5 17)"><tspan>digit</tspan></text></g></g><text transform="translate(906.25 66)" class="repeat-label"><tspan>2 times</tspan><title><text>repeats 3 times in total</text></title></text></g><g class="match-fragment"><g class="label anchor"><path d="M948.469 21h67.03v24h-67.03z"/><text transform="translate(953.469 38)"><tspan>End of line</tspan></text></g></g></g><path d="M10 33H0m1015.5 0h10"/><circle cy="33" r="5"/><circle cx="1025.5" cy="33" r="5"/></g></svg>